<?xml version="1.0" encoding="iso-8859-1"?>
<!-- Uploaded to: SVG Repo, www.svgrepo.com, Generator: SVG Repo Mixer Tools -->
<svg fill="#000000" height="48" width="48" version="1.1" id="Layer_1" xmlns="http://www.w3.org/2000/svg" xmlns:xlink="http://www.w3.org/1999/xlink" 
	 viewBox="0 0 512 512" xml:space="preserve">
<g transform="translate(1 1)">
	<g>
		<path d="M347.16,339.48C347.16,339.48,347.16,339.48,347.16,339.48c-0.001-0.017-0.002-0.033-0.003-0.049
			c-0.002-0.252-0.016-0.502-0.047-0.748c-2.343-33.881,7.896-68.542,29.064-96.483c9.387-13.653,15.36-29.867,15.36-46.933
			c0-33.28-26.453-59.733-59.733-59.733V127c0-14.507-11.093-25.6-25.6-25.6h-4.836c-0.095-0.284-0.19-0.569-0.284-0.853
			c-2.56-10.24-1.707-20.48,2.56-33.28c1.707-5.973,2.56-11.093,2.56-17.067c0-25.6-18.773-46.933-43.52-50.347
			c-1.8-0.318-3.614-0.516-5.43-0.604C256.543-0.908,255.795-1,255-1c-0.848,0-1.643,0.102-2.39,0.281
			C241.342-0.111,230.265,4.57,221.72,11.8c-11.093,9.387-17.92,23.893-17.92,38.4c0,5.973,0.853,11.093,2.56,17.067
			c4.267,11.947,5.12,23.04,4.267,32.427c-0.19,0.569-0.379,1.138-0.569,1.707H203.8c-14.507,0-25.6,11.093-25.6,25.6v8.533
			c-33.28,0-59.733,26.453-59.733,59.733c0,17.067,5.973,33.28,15.36,46.933c21.981,27.899,32.227,61.661,29.096,96.307
			c-0.049,0.319-0.083,0.642-0.083,0.973c-2.56,24.747-11.093,48.64-25.6,69.12c-11.947,17.067-18.773,36.693-18.773,56.32v3.413
			c0,23.893,18.773,42.667,42.667,42.667h187.733c23.893,0,42.667-18.773,42.667-42.667v-3.413c0-19.627-6.827-39.253-18.773-56.32
			C358.253,388.12,349.72,364.227,347.16,339.48z M222.573,61.293c-0.853-3.413-1.707-6.827-1.707-11.093
			c0-10.24,4.267-19.627,11.947-26.453c4.106-3.193,8.703-5.644,13.653-6.982V24.6c0,5.12,3.413,8.533,8.533,8.533
			c5.12,0,8.533-3.413,8.533-8.533v-7.799c14.559,3.916,25.6,17.551,25.6,33.399c0,3.413-0.853,7.68-1.707,11.093
			c-4.267,14.507-5.973,28.16-3.413,40.107H226.84C229.4,89.453,227.693,75.8,222.573,61.293z M195.267,127
			c0-4.267,3.413-8.533,8.533-8.533h11.947h79.36H306.2c4.267,0,8.533,3.413,8.533,8.533v8.533H195.267V127z M147.48,231.96
			c-7.68-10.24-11.947-23.893-11.947-36.693c0-23.893,18.773-42.667,42.667-42.667h8.533h136.533h8.533
			c23.893,0,42.667,18.773,42.667,42.667c0,13.653-4.267,26.453-11.947,36.693c-22.187,29.013-33.28,64-32.427,99.84h-66.56v-17.067
			H280.6c5.12,0,8.533-3.413,8.533-8.533s-3.413-8.533-8.533-8.533h-17.067v-51.2H280.6c5.12,0,8.533-3.413,8.533-8.533
			s-3.413-8.533-8.533-8.533h-17.067v-25.6c0-5.12-3.413-8.533-8.533-8.533h-42.667c-5.12,0-8.533,3.413-8.533,8.533v8.533
			c0,5.12,3.413,8.533,8.533,8.533s8.533-3.413,8.533-8.533h25.6v51.2h-34.133c-5.12,0-8.533,3.413-8.533,8.533v8.533
			c0,5.12,3.413,8.533,8.533,8.533s8.533-3.413,8.533-8.533h25.6v51.2H180.76C181.613,295.96,169.667,260.973,147.48,231.96z
			 M374.467,468.333c0,14.507-11.093,25.6-25.6,25.6H161.133c-14.507,0-25.6-11.093-25.6-25.6v-3.413
			c0-15.36,5.12-31.573,15.36-46.08c15.36-20.48,24.747-45.227,28.16-69.973h67.413v51.2h-34.133c-5.12,0-8.533,3.413-8.533,8.533
			v8.533c0,5.12,3.413,8.533,8.533,8.533s8.533-3.413,8.533-8.533h25.6V434.2c0,5.12,3.413,8.533,8.533,8.533h25.6
			c5.12,0,8.533-3.413,8.533-8.533s-3.413-8.533-8.533-8.533h-17.067V383H280.6c5.12,0,8.533-3.413,8.533-8.533
			s-3.413-8.533-8.533-8.533h-17.067v-17.067h67.546c3.529,24.462,13.688,48.875,28.028,69.12
			c10.24,14.507,15.36,30.72,15.36,46.933V468.333z"/>
	</g>
</g>
</svg>